Coordinates
version=1
nRows=13
nColumns=40
inDegrees=yes

Units are S.I. units (second, meters, Newtons, ...)
Angles are in degrees.

endheader
time	pelvis_tilt	pelvis_list	pelvis_rotation	pelvis_tx	pelvis_ty	pelvis_tz	hip_flexion_r	hip_adduction_r	hip_rotation_r	knee_angle_r	knee_angle_r_beta	ankle_angle_r	subtalar_angle_r	mtp_angle_r	hip_flexion_l	hip_adduction_l	hip_rotation_l	knee_angle_l	knee_angle_l_beta	ankle_angle_l	subtalar_angle_l	mtp_angle_l	lumbar_extension	lumbar_bending	lumbar_rotation	arm_flex_r	arm_add_r	arm_rot_r	elbow_flex_r	pro_sup_r	wrist_flex_r	wrist_dev_r	arm_flex_l	arm_add_l	arm_rot_l	elbow_flex_l	pro_sup_l	wrist_flex_l	wrist_dev_l
     36.57500000	     -1.71397843	     -6.00915523	     -5.05966861	      1.10557980	      0.92884664	      0.51380402	     15.82892319	      4.03486350	     -9.93825564	     18.32255800	     18.32255800	      6.33549085	      1.73449557	     -6.31004657	     11.40369774	    -12.48169873	     -5.27430572	     42.43855824	     42.43855824	     15.79161397	    -18.22527182	      4.40307499	     -9.89382919	      7.39834474	      0.96400276	      2.32195236	    -14.00585733	    -10.36439515	     37.41365839	     45.77704018	      0.00000000	      0.00000000	     14.87284300	    -11.29502085	     -4.82540602	     46.13538387	     47.10010108	      0.00000000	      0.00000000
     36.58800000	     -1.55679412	     -6.17535320	     -4.67884881	      1.10547972	      0.92918507	      0.51578313	     15.21736277	      4.26446276	    -10.24580982	     18.23526947	     18.23526947	      6.71851667	      1.73611623	     -6.40577617	     13.12570451	    -12.99639207	     -4.35700746	     45.96536698	     45.96536698	     14.44544901	    -18.51994314	      4.50147817	    -10.13773033	      7.54820930	      1.01034879	      3.40843549	    -14.18887255	    -10.23484028	     38.09478918	     45.75135158	      0.00000000	      0.00000000	     14.17497827	    -11.07021547	     -4.76856959	     45.42777436	     47.07613227	      0.00000000	      0.00000000
     36.60100000	     -1.53247300	     -6.30481559	     -4.28208258	      1.10524090	      0.92932421	      0.51757048	     14.74652565	      4.46558170	    -10.55967280	     18.10432747	     18.10432747	      7.01970512	      1.67248287	     -6.48096476	     15.04044500	    -13.38355548	     -3.34533052	     49.36067065	     49.36067065	     13.22127562	    -18.71469852	      5.13115340	    -10.13118115	      7.68278736	      0.85851754	      4.53537674	    -14.34508812	     -9.92711074	     38.99859949	     45.70762160	      0.00000000	      0.00000000	     13.48067489	    -10.94362010	     -4.77750147	     44.13769278	     47.05233944	      0.00000000	      0.00000000
     36.61400000	     -1.41902772	     -6.25323971	     -3.89718539	      1.10483849	      0.92974438	      0.51908771	     14.23625442	      4.47017314	    -10.72467317	     18.03437528	     18.03437528	      7.24230671	      1.45316299	     -6.62754426	     16.83374410	    -13.38563882	     -2.26381921	     52.50691616	     52.50691616	     12.88820759	    -18.77044534	      8.41358515	    -10.26357047	      7.62222666	      0.76102122	      5.46442803	    -14.77527510	     -8.35242419	     40.66528162	     45.56967887	      0.00000000	      0.00000000	     13.53257648	    -10.65433535	     -5.17197901	     40.96397572	     47.04794451	      0.00000000	      0.00000000
     36.62700000	     -1.36506958	     -6.33450197	     -3.53392588	      1.10436087	      0.93009815	      0.52069929	     13.69057767	      4.64904506	    -10.90670807	     17.78389028	     17.78389028	      7.48840327	      1.44862577	     -6.66510949	     18.52874888	    -13.59615098	     -1.38186199	     55.08023307	     55.08023307	     11.71629400	    -18.85131383	      8.95437862	    -10.40092321	      7.61919061	      1.15264401	      6.37344919	    -15.15739267	     -8.12683545	     41.25725029	     45.54316005	      0.00000000	      0.00000000	     12.95258786	    -10.32084377	     -5.20096395	     40.23852732	     47.03369864	      0.00000000	      0.00000000
     36.64000000	     -1.33238166	     -6.21090040	     -3.20788727	      1.10371147	      0.93054001	      0.52207912	     13.20507662	      4.61670872	    -10.97508029	     17.53739101	     17.53739101	      7.59136799	      1.18717368	     -6.88781402	     20.23546973	    -13.42761690	     -0.49591340	     57.37334113	     57.37334113	     11.84524130	    -18.79735452	     12.70229921	    -10.47148268	      7.44266872	      1.44744868	      6.92207806	    -16.02252781	     -5.73550644	     43.19033452	     45.36919908	      0.00000000	      0.00000000	     13.17912901	     -9.81663662	     -6.02999981	     37.13770685	     47.06754154	      0.00000000	      0.00000000
     36.65300000	     -1.32508103	     -6.20171136	     -2.83806775	      1.10297783	      0.93092779	      0.52341868	     12.74077990	      4.69780433	    -11.11382705	     17.28370542	     17.28370542	      7.76374965	      1.07887316	     -6.87094157	     21.77206130	    -13.47833556	      0.16379725	     58.93528253	     58.93528253	     10.94892883	    -18.85523720	     12.88301101	    -10.53152756	      7.37140330	      1.54880924	      8.03953050	    -16.24616911	     -5.66567858	     43.89807007	     45.34897607	      0.00000000	      0.00000000	     12.34593129	     -9.75313992	     -6.07944593	     36.43309804	     47.05242454	      0.00000000	      0.00000000
     36.66600000	     -1.31921322	     -6.06191988	     -2.48517163	      1.10214336	      0.93142050	      0.52466284	     12.26637336	      4.67184849	    -11.08504537	     16.97309843	     16.97309843	      7.89226915	      0.71935942	     -7.02294228	     23.19602697	    -13.36278715	      0.65340566	     59.96801652	     59.96801652	     10.75413953	    -18.84551602	     14.29015363	    -10.64765705	      7.12837714	      1.60948361	      8.92150255	    -16.90227440	     -3.76494029	     45.52840597	     45.23111292	      0.00000000	      0.00000000	     12.04199965	     -9.53611177	     -6.96732532	     34.31996127	     47.09253115	      0.00000000	      0.00000000
     36.67900000	     -1.36573506	     -5.96950620	     -2.11642180	      1.10120405	      0.93182462	      0.52582839	     11.86004799	      4.66872869	    -11.20987881	     16.67636149	     16.67636149	      8.06262796	      0.59365401	     -6.98797827	     24.56408835	    -13.34017556	      1.00217913	     60.41613421	     60.41613421	     10.32590286	    -18.87916005	     14.38633162	    -10.68179721	      6.92916545	      1.73594036	     10.04402764	    -17.10033655	     -3.74872077	     46.23434415	     45.21464185	      0.00000000	      0.00000000	     11.19816303	     -9.53282083	     -7.04026180	     33.69943246	     47.08073715	      0.00000000	      0.00000000
     36.69200000	     -1.43515821	     -5.85870768	     -1.72642387	      1.10013633	      0.93225848	      0.52683624	     11.46447272	      4.65251797	    -11.29537216	     16.32996097	     16.32996097	      8.20124035	      0.38644866	     -6.93836764	     25.84473645	    -13.29588575	      1.22886775	     60.28958868	     60.28958868	     10.16443102	    -18.92573240	     14.61772663	    -10.75733690	      6.73126822	      1.59048478	     11.24913203	    -17.22549812	     -3.50184648	     47.28714424	     45.17679883	      0.00000000	      0.00000000	     10.32645155	     -9.63366603	     -7.18985288	     32.77676535	     47.07548246	      0.00000000	      0.00000000
     36.70500000	     -1.50746775	     -5.73780869	     -1.33556224	      1.09903107	      0.93267152	      0.52769765	     11.08697655	      4.61102196	    -11.40705295	     16.00401177	     16.00401177	      8.34777393	      0.19661149	     -6.91662413	     27.00497924	    -13.26725744	      1.28356466	     59.61912055	     59.61912055	     10.18599010	    -18.95296074	     14.92580820	    -10.82236606	      6.53260608	      1.58252708	     12.33182242	    -17.45705529	     -3.09071862	     48.39907844	     45.12976892	      0.00000000	      0.00000000	      9.53931756	     -9.68862136	     -7.39298980	     31.88443939	     47.07929936	      0.00000000	      0.00000000
     36.71800000	     -1.59665638	     -5.60749179	     -0.93860916	      1.09785530	      0.93302197	      0.52846521	     10.73286555	      4.54991008	    -11.54334920	     15.68372846	     15.68372846	      8.46854471	      0.05694671	     -6.90196474	     28.06392520	    -13.21742347	      1.23887390	     58.43641081	     58.43641081	     10.32902438	    -19.00628741	     15.28321280	    -10.88640925	      6.29502836	      1.58755879	     13.38120069	    -17.72515223	     -2.57501136	     49.65605628	     45.07391013	      0.00000000	      0.00000000	      8.74149103	     -9.74117669	     -7.64389090	     31.00390063	     47.09031559	      0.00000000	      0.00000000
     36.73100000	     -1.73778224	     -5.55815469	     -0.56244253	      1.09662643	      0.93317796	      0.52911636	     10.54500228	      4.53795305	    -11.76974984	     15.57402618	     15.57402618	      8.62070912	     -0.08826463	     -6.92648025	     29.06095041	    -13.25947000	      1.10794779	     56.79627368	     56.79627368	     10.52924581	    -19.02123842	     15.45762192	    -10.87717105	      6.16842928	      2.07627079	     14.28263757	    -18.12805040	     -2.59365556	     50.12906666	     45.06404716	      0.00000000	      0.00000000	      8.11575022	     -9.67685681	     -7.69263025	     30.68155237	     47.08527385	      0.00000000	      0.00000000
